<?xml version="1.0" encoding="UTF-8" standalone="no"?>
<svg
   xmlns:dc="http://purl.org/dc/elements/1.1/"
   xmlns:cc="http://creativecommons.org/ns#"
   xmlns:rdf="http://www.w3.org/1999/02/22-rdf-syntax-ns#"
   xmlns:svg="http://www.w3.org/2000/svg"
   xmlns="http://www.w3.org/2000/svg"
   id="svg24"
   preserveAspectRatio="xMidYMid meet"
   viewBox="0 0 225.000000 225.000000"
   height="225.000000pt"
   width="225.000000pt"
   version="1.0">
  <defs
     id="defs28" />
  <metadata
     id="metadata2">
Created by a nice person
<rdf:RDF>
  <cc:Work
     rdf:about="">
    <dc:format>image/svg+xml</dc:format>
    <dc:type
       rdf:resource="http://purl.org/dc/dcmitype/StillImage" />
  </cc:Work>
</rdf:RDF>
</metadata>
  <g
     id="g22"
     stroke="none"
     fill="#000000"
     transform="translate(0.000000,225.000000) scale(0.100000,-0.100000)">
    <path
       id="path4"
       d="M637 1613 c-4 -3 -7 -66 -7 -140 l0 -133 140 0 140 0 0 140 0 140 -133 0 c-74 0 -137 -3 -140 -7z" />
    <path
       id="path6"
       d="M990 1480 l0 -140 135 0 135 0 0 140 0 140 -135 0 -135 0 0 -140z" />
    <path
       id="path8"
       d="M1340 1480 l0 -140 140 0 141 0 -3 138 -3 137 -137 3 -138 3 0 -141z" />
    <path
       id="path10"
       d="M630 1125 l0 -135 140 0 140 0 0 135 0 135 -140 0 -140 0 0 -135z" />
    <path
       id="path12"
       d="M990 1125 l0 -135 135 0 135 0 0 135 0 135 -135 0 -135 0 0 -135z" />
    <path
       id="path14"
       d="M1340 1125 l0 -135 140 0 140 0 0 135 0 135 -140 0 -140 0 0 -135z" />
    <path
       id="path16"
       d="M632 773 l3 -138 138 -3 137 -3 0 141 0 140 -140 0 -141 0 3 -137z" />
    <path
       id="path18"
       d="M990 770 l0 -140 135 0 135 0 0 140 0 140 -135 0 -135 0 0 -140z" />
    <path
       id="path20"
       d="M1340 770 l0 -141 138 3 137 3 3 138 3 137 -141 0 -140 0 0 -140z" />
  </g>
</svg>
